<?xml version="1.0"?>
<svg version="1.1" xmlns="http://www.w3.org/2000/svg" width="286px" height="47px" style=""><path fill="#ff4b02" d="M19.495,35.33c0,5.67-4.585,7.07-9.555,7.07l-6.51,0c-0.735,0-0.91-0.28-0.91-1.015l0-22.295c0-0.735,0.315-0.91,1.05-0.91l5.25,0c5.635,0,8.785,1.715,8.785,5.915c0,2.45-1.4,4.585-3.955,5.145l0,0.035c3.325,0.245,5.845,2.52,5.845,6.055z M13.195,24.62c0-2.275-1.785-3.01-4.235-3.01l-1.96,0l0,6.51l1.82,0c2.555,0,4.375-0.665,4.375-3.5z M14.91,35.19c0-1.645-0.735-2.695-1.855-3.255c-1.085-0.525-2.275-0.63-3.745-0.63l-2.31,0l0,7.63l2.59,0c1.225,0,2.415-0.105,3.29-0.455c1.225-0.525,2.03-1.61,2.03-3.29z M40.3025,18.775l0,0.21l-0.245,2.1c-0.07,0.63-0.455,0.735-1.19,0.735l-8.785,0l0,6.335l8.085,0c0.665,0,0.875,0.28,0.875,0.77l0,1.995c0,0.595-0.245,0.84-0.84,0.84l-8.12,0l0,9.765c0,0.63-0.245,0.875-0.84,0.875l-2.73,0c-0.7,0-0.945-0.175-0.945-0.945l0-22.4c0-0.56,0.245-0.875,0.805-0.875l13.195,0c0.525,0,0.735,0.175,0.735,0.595z M66.43,30.395c0,4.2-1.435,7.35-3.815,9.38c-2.17,1.82-5.215,2.625-8.68,2.625l-6.685,0c-0.7,0-1.015-0.175-1.015-0.98l0-22.19c0-0.735,0.21-1.05,1.085-1.05l5.04,0c4.025,0,6.755,0.455,9.065,1.785c3.15,1.82,5.005,5.25,5.005,10.43z M61.6,30.36c0-3.185-0.945-5.6-2.73-6.93c-1.435-1.05-3.29-1.435-5.53-1.435l-2.555,0l0,16.625l2.695,0c2.415,0,4.445-0.385,5.915-1.855c1.4-1.4,2.205-3.5,2.205-6.405z"/><path fill="#ffffff" d="M76.44677734375,28.66357421875q0-1.58935546875,0.142822265625-3.182373046875t0.596923828125-3.138427734375q0.1318359375-0.46142578125,0.34423828125-0.911865234375t0.52001953125-0.802001953125t0.732421875-0.5712890625t1.0107421875-0.2197265625l0.15380859375,0.0146484375q0.6298828125,0.087890625,0.93017578125,0.509033203125t0.30029296875,1.051025390625q0,0.16845703125-0.040283203125,0.421142578125t-0.128173828125,0.487060546875t-0.238037109375,0.399169921875t-0.377197265625,0.164794921875q-0.1025390625-0.0146484375-0.186767578125-0.03662109375t-0.157470703125-0.09521484375q0.1171875-0.25634765625,0.208740234375-0.53466796875t0.091552734375-0.63720703125q0-0.1318359375-0.02197265625-0.3369140625t-0.084228515625-0.406494140625t-0.164794921875-0.3515625t-0.28564453125-0.150146484375q-0.46142578125,0-0.7763671875,0.516357421875t-0.52734375,1.318359375t-0.31494140625,1.7724609375t-0.157470703125,1.875t-0.062255859375,1.63330078125t-0.00732421875,1.029052734375q0,0.3515625-0.00732421875,0.7763671875l0,0.09521484375q0.00732421875,0.37353515625,0.05126953125,0.71044921875q0.05859375,0.380859375,0.22705078125,0.6591796875t0.52734375,0.322265625q0.10986328125,0.0146484375,0.21240234375,0.0146484375q0.4248046875,0,0.76904296875-0.24169921875q0.4248046875-0.30029296875,0.75439453125-0.780029296875t0.5859375-1.0546875t0.472412109375-1.087646484375t0.421142578125-0.849609375t0.4248046875-0.3369140625q0.0732421875,0,0.2197265625,0.029296875t0.146484375,0.13916015625q0,0.029296875-0.0146484375,0.08056640625t-0.03662109375,0.08056640625q-0.19775390625,0.7763671875-0.501708984375,1.611328125t-0.7763671875,1.519775390625t-1.1572265625,1.116943359375t-1.644287109375,0.43212890625q-0.6884765625,0-1.116943359375-0.260009765625t-0.6591796875-0.69580078125t-0.31494140625-0.985107421875t-0.084228515625-1.11328125z M84.251977539062,26.21728515625q0-0.30029296875,0.106201171875-0.50537109375t0.450439453125-0.205078125q0.1318359375,0,0.32958984375,0.040283203125t0.22705078125,0.201416015625q0.0732421875,0.43212890625,0.08056640625,0.9375t0.05126953125,0.9521484375q0.16845703125-0.32958984375,0.43212890625-0.71044921875t0.6005859375-0.703125t0.732421875-0.53466796875t0.8056640625-0.21240234375q0.029296875,0,0.10986328125,0.02197265625t0.150146484375,0.062255859375t0.084228515625,0.091552734375t-0.08056640625,0.09521484375q-0.029296875,0.087890625-0.12451171875,0.106201171875t-0.16845703125,0.018310546875q-0.0439453125,0-0.13916015625-0.03662109375q-0.5419921875,0.28564453125-0.9228515625,0.7763671875t-0.62255859375,1.087646484375t-0.3515625,1.259765625t-0.10986328125,1.292724609375q0,0.31494140625-0.142822265625,0.380859375t-0.457763671875,0.06591796875q-0.16845703125,0-0.355224609375-0.03662109375t-0.260009765625-0.234375q-0.1318359375-0.41748046875-0.216064453125-0.95947265625t-0.128173828125-1.116943359375t-0.062255859375-1.131591796875t-0.018310546875-1.00341796875z M89.457080078125,28.568359375q0-0.5126953125,0.113525390625-1.20849609375t0.384521484375-1.318359375t0.714111328125-1.058349609375t1.116943359375-0.435791015625q0.6298828125,0,0.94482421875,0.362548828125t0.31494140625,0.977783203125q0,0.40283203125-0.150146484375,0.882568359375t-0.428466796875,0.908203125t-0.6591796875,0.714111328125t-0.849609375,0.28564453125l-0.1904296875-0.0146484375q0,0.19775390625,0.05859375,0.531005859375t0.172119140625,0.662841796875t0.29296875,0.57861328125t0.435791015625,0.2490234375q0.37353515625,0,0.7177734375-0.30029296875t0.65185546875-0.66650390625t0.5712890625-0.66650390625t0.4833984375-0.30029296875q0.1171875,0,0.24169921875,0.03662109375t0.13916015625,0.205078125q0,0.1025390625-0.054931640625,0.16845703125t-0.098876953125,0.146484375q-0.22705078125,0.38818359375-0.494384765625,0.73974609375t-0.604248046875,0.63720703125t-0.736083984375,0.450439453125t-0.882568359375,0.164794921875q-0.6298828125,0-1.04736328125-0.223388671875t-0.673828125-0.6005859375t-0.369873046875-0.87158203125t-0.113525390625-1.036376953125z M90.768115234375,28.01171875l0.205078125,0.18310546875q0.146484375,0.1318359375,0.29296875,0.05859375t0.263671875-0.267333984375t0.216064453125-0.479736328125t0.17578125-0.5859375t0.113525390625-0.5859375t0.03662109375-0.47607421875l0-0.2490234375t-0.02197265625-0.263671875t-0.076904296875-0.208740234375t-0.172119140625-0.106201171875q-0.03662109375-0.00732421875-0.06591796875-0.00732421875q-0.2490234375,0-0.4248046875,0.31494140625q-0.1904296875,0.3515625-0.3076171875,0.853271484375t-0.16845703125,1.029052734375t-0.06591796875,0.791015625z M95.577709960937,28.26806640625q0-0.498046875,0.135498046875-0.95947265625t0.406494140625-0.823974609375t0.677490234375-0.57861328125t0.941162109375-0.216064453125q0.32958984375,0,0.728759765625,0.098876953125t0.750732421875,0.29296875t0.5859375,0.494384765625t0.234375,0.6884765625q0,0.18310546875-0.062255859375,0.2783203125t-0.252685546875,0.09521484375l-0.08056640625-0.0146484375q0.21240234375,0.5712890625,0.3662109375,1.171875t0.30029296875,1.201171875q0.05859375,0.1171875,0.087890625,0.208740234375t0.029296875,0.179443359375q0,0.1171875-0.06591796875,0.194091796875t-0.172119140625,0.113525390625t-0.2197265625,0.05126953125t-0.201416015625,0.0146484375q-0.31494140625,0-0.472412109375-0.10986328125t-0.22705078125-0.30029296875t-0.084228515625-0.428466796875t-0.05859375-0.479736328125q-0.087890625,0.28564453125-0.230712890625,0.556640625t-0.3369140625,0.487060546875t-0.457763671875,0.34423828125t-0.59326171875,0.128173828125q-0.4833984375,0-0.81298828125-0.2783203125t-0.531005859375-0.684814453125t-0.29296875-0.867919921875t-0.091552734375-0.85693359375z M96.617749023437,28.16552734375q0,0.27099609375,0.03662109375,0.5712890625t0.120849609375,0.59326171875t0.216064453125,0.552978515625t0.32958984375,0.457763671875q0.35888671875-0.38818359375,0.531005859375-0.94482421875t0.3076171875-1.072998046875t0.3076171875-0.88623046875t0.531005859375-0.369873046875q0.22705078125,0,0.380859375,0.08056640625q-0.0732421875-0.18310546875-0.24169921875-0.355224609375t-0.377197265625-0.31494140625t-0.43212890625-0.234375t-0.421142578125-0.091552734375q-0.05859375,0-0.135498046875,0.018310546875t-0.120849609375,0.003662109375q-0.30029296875,0.087890625-0.494384765625,0.303955078125t-0.31494140625,0.509033203125t-0.172119140625,0.6005859375t-0.05126953125,0.57861328125z M101.62509765625,23.6171875q0-0.1025390625,0.2197265625-0.17578125t0.498046875-0.120849609375t0.538330078125-0.069580078125t0.355224609375-0.03662109375q0-0.19775390625,0.0146484375-0.399169921875t0.08056640625-0.35888671875t0.208740234375-0.252685546875t0.399169921875-0.09521484375q0.21240234375,0,0.322265625,0.05126953125t0.234375,0.21240234375q0.029296875,0.087890625,0.029296875,0.16845703125l0,0.245361328125t-0.0146484375,0.252685546875q0.27099609375-0.029296875,0.538330078125-0.069580078125t0.538330078125-0.040283203125q0.19775390625,0,0.27099609375,0.00732421875t0.146484375,0.17578125q0.05859375,0.16845703125-0.142822265625,0.25634765625t-0.4833984375,0.1318359375t-0.560302734375,0.06591796875t-0.3369140625,0.02197265625q-0.087890625,1.259765625-0.179443359375,2.49755859375t-0.091552734375,2.51220703125q0,0.5712890625,0.03662109375,1.17919921875t0.205078125,1.14990234375q0.0439453125,0.16845703125,0.146484375,0.31494140625t0.1025390625,0.31494140625q0,0.1025390625-0.08056640625,0.1611328125t-0.194091796875,0.098876953125t-0.22705078125,0.047607421875t-0.186767578125,0.00732421875q-0.46142578125,0-0.703125-0.34423828125t-0.347900390625-0.823974609375t-0.113525390625-0.985107421875t-0.00732421875-0.8203125q0-0.64453125,0.025634765625-1.318359375t0.062255859375-1.3330078125t0.1025390625-1.2890625t0.15380859375-1.171875q-0.25634765625,0.029296875-0.501708984375,0.06591796875t-0.501708984375,0.03662109375q-0.05859375,0-0.157470703125-0.00732421875t-0.186767578125-0.03662109375t-0.150146484375-0.08056640625t-0.062255859375-0.146484375z M107.22570800781,28.09228515625q0-0.673828125,0.157470703125-1.322021484375t0.267333984375-1.292724609375q0.029296875-0.16845703125,0.230712890625-0.208740234375t0.340576171875-0.040283203125q0.24169921875,0,0.38818359375,0.0732421875q0.05859375,0.029296875,0.10986328125,0.06591796875t0.05126953125,0.09521484375q0,0.6298828125-0.150146484375,1.23046875t-0.150146484375,1.2744140625q0,0.22705078125,0.032958984375,0.428466796875t0.062255859375,0.399169921875l0.0439453125,0.21240234375q0,0.05859375,0.00732421875,0.1025390625t0.02197265625,0.1025390625q0,0.1318359375-0.186767578125,0.179443359375t-0.325927734375,0.047607421875q-0.21240234375,0-0.391845703125-0.084228515625t-0.281982421875-0.289306640625l-0.1025390625-0.21240234375q-0.087890625-0.16845703125-0.087890625-0.377197265625t-0.03662109375-0.384521484375z M107.69445800781,23.68310546875l0-0.13916015625q0-0.34423828125,0.172119140625-0.615234375t0.516357421875-0.27099609375q0.0439453125,0,0.084228515625,0.00732421875t0.084228515625,0.00732421875q0.087890625,0.0146484375,0.230712890625,0.069580078125t0.142822265625,0.172119140625l0,0.0146484375q-0.029296875,0.05859375-0.03662109375,0.120849609375t-0.03662109375,0.106201171875l0.0146484375-0.0146484375q-0.087890625,0.22705078125-0.142822265625,0.3662109375t-0.120849609375,0.223388671875t-0.164794921875,0.120849609375t-0.281982421875,0.03662109375q-0.029296875,0-0.1025390625-0.00732421875t-0.157470703125-0.029296875t-0.142822265625-0.05859375t-0.05859375-0.10986328125z M110.12368164062,25.54345703125q0-0.05859375,0.069580078125-0.106201171875t0.157470703125-0.069580078125t0.179443359375-0.029296875t0.135498046875-0.00732421875q0.32958984375,0,0.56396484375,0.29296875t0.406494140625,0.750732421875t0.29296875,1.0107421875t0.230712890625,1.102294921875t0.216064453125,1.007080078125t0.238037109375,0.706787109375q0.22705078125-0.44677734375,0.413818359375-1.07666015625t0.34423828125-1.3037109375t0.2783203125-1.329345703125t0.194091796875-1.146240234375q0.029296875-0.1318359375,0.18310546875-0.164794921875t0.25634765625-0.032958984375q0.16845703125,0,0.29296875,0.047607421875t0.12451171875,0.208740234375q0,0.27099609375-0.06591796875,0.736083984375t-0.179443359375,1.043701171875t-0.263671875,1.1865234375t-0.322265625,1.153564453125t-0.35888671875,0.966796875t-0.369873046875,0.596923828125q-0.087890625,0.1025390625-0.274658203125,0.142822265625t-0.311279296875,0.040283203125q-0.43212890625,0-0.7177734375-0.22705078125l0,0.0146484375q-0.44677734375-0.41748046875-0.6591796875-1.01806640625t-0.3076171875-1.25244140625t-0.172119140625-1.29638671875t-0.260009765625-1.171875q-0.029296875-0.05859375-0.0732421875-0.172119140625t-0.1025390625-0.22705078125t-0.098876953125-0.216064453125t-0.040283203125-0.1611328125z M115.90007324219,28.568359375q0-0.5126953125,0.113525390625-1.20849609375t0.384521484375-1.318359375t0.714111328125-1.058349609375t1.116943359375-0.435791015625q0.6298828125,0,0.94482421875,0.362548828125t0.31494140625,0.977783203125q0,0.40283203125-0.150146484375,0.882568359375t-0.428466796875,0.908203125t-0.6591796875,0.714111328125t-0.849609375,0.28564453125l-0.1904296875-0.0146484375q0,0.19775390625,0.05859375,0.531005859375t0.172119140625,0.662841796875t0.29296875,0.57861328125t0.435791015625,0.2490234375q0.37353515625,0,0.7177734375-0.30029296875t0.65185546875-0.66650390625t0.5712890625-0.66650390625t0.4833984375-0.30029296875q0.1171875,0,0.24169921875,0.03662109375t0.13916015625,0.205078125q0,0.1025390625-0.054931640625,0.16845703125t-0.098876953125,0.146484375q-0.22705078125,0.38818359375-0.494384765625,0.73974609375t-0.604248046875,0.63720703125t-0.736083984375,0.450439453125t-0.882568359375,0.164794921875q-0.6298828125,0-1.04736328125-0.223388671875t-0.673828125-0.6005859375t-0.369873046875-0.87158203125t-0.113525390625-1.036376953125z M117.21110839844,28.01171875l0.205078125,0.18310546875q0.146484375,0.1318359375,0.29296875,0.05859375t0.263671875-0.267333984375t0.216064453125-0.479736328125t0.17578125-0.5859375t0.113525390625-0.5859375t0.03662109375-0.47607421875l0-0.2490234375t-0.02197265625-0.263671875t-0.076904296875-0.208740234375t-0.172119140625-0.106201171875q-0.03662109375-0.00732421875-0.06591796875-0.00732421875q-0.2490234375,0-0.4248046875,0.31494140625q-0.1904296875,0.3515625-0.3076171875,0.853271484375t-0.16845703125,1.029052734375t-0.06591796875,0.791015625z M124.87473144531,29.6083984375q0-0.25634765625,0.17578125-0.325927734375t0.380859375-0.069580078125q0.35888671875,0,0.60791015625,0.322265625t0.472412109375,0.706787109375t0.443115234375,0.706787109375t0.52001953125,0.322265625q0.22705078125,0,0.413818359375-0.113525390625t0.322265625-0.28564453125t0.208740234375-0.38818359375t0.0732421875-0.428466796875q0-0.556640625-0.223388671875-1.14990234375t-0.5712890625-1.22314453125t-0.736083984375-1.2890625t-0.732421875-1.34033203125t-0.5712890625-1.387939453125t-0.22705078125-1.424560546875q0-1.07666015625,0.64453125-1.669921875t1.69921875-0.59326171875q0.35888671875,0,0.72509765625,0.1025390625t0.673828125,0.3076171875t0.501708984375,0.50537109375t0.194091796875,0.703125q0,0.1318359375-0.194091796875,0.172119140625t-0.281982421875,0.040283203125q-0.1318359375,0-0.28564453125-0.032958984375t-0.19775390625-0.179443359375t-0.12451171875-0.3369140625t-0.201416015625-0.355224609375t-0.28564453125-0.28564453125t-0.362548828125-0.120849609375q-0.32958984375,0-0.560302734375,0.135498046875t-0.37353515625,0.362548828125t-0.21240234375,0.509033203125t-0.069580078125,0.582275390625q0,0.703125,0.24169921875,1.417236328125t0.6005859375,1.4208984375t0.780029296875,1.395263671875t0.780029296875,1.34033203125t0.6005859375,1.2744140625t0.24169921875,1.17919921875q0,0.498046875-0.234375,0.84228515625t-0.59326171875,0.560302734375t-0.794677734375,0.31494140625t-0.853271484375,0.098876953125q-0.44677734375,0-0.91552734375-0.179443359375t-0.84228515625-0.494384765625t-0.615234375-0.736083984375t-0.24169921875-0.911865234375z M131.46411132812,28.568359375q0-0.5126953125,0.113525390625-1.20849609375t0.384521484375-1.318359375t0.714111328125-1.058349609375t1.116943359375-0.435791015625q0.6298828125,0,0.94482421875,0.362548828125t0.31494140625,0.977783203125q0,0.40283203125-0.150146484375,0.882568359375t-0.428466796875,0.908203125t-0.6591796875,0.714111328125t-0.849609375,0.28564453125l-0.1904296875-0.0146484375q0,0.19775390625,0.05859375,0.531005859375t0.172119140625,0.662841796875t0.29296875,0.57861328125t0.435791015625,0.2490234375q0.37353515625,0,0.7177734375-0.30029296875t0.65185546875-0.66650390625t0.5712890625-0.66650390625t0.4833984375-0.30029296875q0.1171875,0,0.24169921875,0.03662109375t0.13916015625,0.205078125q0,0.1025390625-0.054931640625,0.16845703125t-0.098876953125,0.146484375q-0.22705078125,0.38818359375-0.494384765625,0.73974609375t-0.604248046875,0.63720703125t-0.736083984375,0.450439453125t-0.882568359375,0.164794921875q-0.6298828125,0-1.04736328125-0.223388671875t-0.673828125-0.6005859375t-0.369873046875-0.87158203125t-0.113525390625-1.036376953125z M132.77514648438,28.01171875l0.205078125,0.18310546875q0.146484375,0.1318359375,0.29296875,0.05859375t0.263671875-0.267333984375t0.216064453125-0.479736328125t0.17578125-0.5859375t0.113525390625-0.5859375t0.03662109375-0.47607421875l0-0.2490234375t-0.02197265625-0.263671875t-0.076904296875-0.208740234375t-0.172119140625-0.106201171875q-0.03662109375-0.00732421875-0.06591796875-0.00732421875q-0.2490234375,0-0.4248046875,0.31494140625q-0.1904296875,0.3515625-0.3076171875,0.853271484375t-0.16845703125,1.029052734375t-0.06591796875,0.791015625z M137.58474121094,26.21728515625q0-0.30029296875,0.106201171875-0.50537109375t0.450439453125-0.205078125q0.1318359375,0,0.32958984375,0.040283203125t0.22705078125,0.201416015625q0.0732421875,0.43212890625,0.08056640625,0.9375t0.05126953125,0.9521484375q0.16845703125-0.32958984375,0.43212890625-0.71044921875t0.6005859375-0.703125t0.732421875-0.53466796875t0.8056640625-0.21240234375q0.029296875,0,0.10986328125,0.02197265625t0.150146484375,0.062255859375t0.084228515625,0.091552734375t-0.08056640625,0.09521484375q-0.029296875,0.087890625-0.12451171875,0.106201171875t-0.16845703125,0.018310546875q-0.0439453125,0-0.13916015625-0.03662109375q-0.5419921875,0.28564453125-0.9228515625,0.7763671875t-0.62255859375,1.087646484375t-0.3515625,1.259765625t-0.10986328125,1.292724609375q0,0.31494140625-0.142822265625,0.380859375t-0.457763671875,0.06591796875q-0.16845703125,0-0.355224609375-0.03662109375t-0.260009765625-0.234375q-0.1318359375-0.41748046875-0.216064453125-0.95947265625t-0.128173828125-1.116943359375t-0.062255859375-1.131591796875t-0.018310546875-1.00341796875z M142.48955078125,25.54345703125q0-0.05859375,0.069580078125-0.106201171875t0.157470703125-0.069580078125t0.179443359375-0.029296875t0.135498046875-0.00732421875q0.32958984375,0,0.56396484375,0.29296875t0.406494140625,0.750732421875t0.29296875,1.0107421875t0.230712890625,1.102294921875t0.216064453125,1.007080078125t0.238037109375,0.706787109375q0.22705078125-0.44677734375,0.413818359375-1.07666015625t0.34423828125-1.3037109375t0.2783203125-1.329345703125t0.194091796875-1.146240234375q0.029296875-0.1318359375,0.18310546875-0.164794921875t0.25634765625-0.032958984375q0.16845703125,0,0.29296875,0.047607421875t0.12451171875,0.208740234375q0,0.27099609375-0.06591796875,0.736083984375t-0.179443359375,1.043701171875t-0.263671875,1.1865234375t-0.322265625,1.153564453125t-0.35888671875,0.966796875t-0.369873046875,0.596923828125q-0.087890625,0.1025390625-0.274658203125,0.142822265625t-0.311279296875,0.040283203125q-0.43212890625,0-0.7177734375-0.22705078125l0,0.0146484375q-0.44677734375-0.41748046875-0.6591796875-1.01806640625t-0.3076171875-1.25244140625t-0.172119140625-1.29638671875t-0.260009765625-1.171875q-0.029296875-0.05859375-0.0732421875-0.172119140625t-0.1025390625-0.22705078125t-0.098876953125-0.216064453125t-0.040283203125-0.1611328125z M148.26594238281,28.09228515625q0-0.673828125,0.157470703125-1.322021484375t0.267333984375-1.292724609375q0.029296875-0.16845703125,0.230712890625-0.208740234375t0.340576171875-0.040283203125q0.24169921875,0,0.38818359375,0.0732421875q0.05859375,0.029296875,0.10986328125,0.06591796875t0.05126953125,0.09521484375q0,0.6298828125-0.150146484375,1.23046875t-0.150146484375,1.2744140625q0,0.22705078125,0.032958984375,0.428466796875t0.062255859375,0.399169921875l0.0439453125,0.21240234375q0,0.05859375,0.00732421875,0.1025390625t0.02197265625,0.1025390625q0,0.1318359375-0.186767578125,0.179443359375t-0.325927734375,0.047607421875q-0.21240234375,0-0.391845703125-0.084228515625t-0.281982421875-0.289306640625l-0.1025390625-0.21240234375q-0.087890625-0.16845703125-0.087890625-0.377197265625t-0.03662109375-0.384521484375z M148.73469238281,23.68310546875l0-0.13916015625q0-0.34423828125,0.172119140625-0.615234375t0.516357421875-0.27099609375q0.0439453125,0,0.084228515625,0.00732421875t0.084228515625,0.00732421875q0.087890625,0.0146484375,0.230712890625,0.069580078125t0.142822265625,0.172119140625l0,0.0146484375q-0.029296875,0.05859375-0.03662109375,0.120849609375t-0.03662109375,0.106201171875l0.0146484375-0.0146484375q-0.087890625,0.22705078125-0.142822265625,0.3662109375t-0.120849609375,0.223388671875t-0.164794921875,0.120849609375t-0.281982421875,0.03662109375q-0.029296875,0-0.1025390625-0.00732421875t-0.157470703125-0.029296875t-0.142822265625-0.05859375t-0.05859375-0.10986328125z M151.46420898438,28.12158203125q0-0.52734375,0.135498046875-1.058349609375t0.421142578125-0.9521484375t0.728759765625-0.684814453125t1.043701171875-0.263671875q0.25634765625,0,0.56396484375,0.062255859375t0.567626953125,0.19775390625t0.439453125,0.3515625t0.179443359375,0.531005859375q0,0.19775390625-0.1025390625,0.263671875t-0.27099609375,0.06591796875l-0.05126953125-0.0732421875t-0.142822265625-0.186767578125t-0.194091796875-0.24169921875t-0.19775390625-0.216064453125q-0.30029296875-0.30029296875-0.56396484375-0.322265625l-0.05859375,0q-0.2197265625,0-0.41015625,0.1318359375q-0.21240234375,0.1611328125-0.377197265625,0.4541015625t-0.274658203125,0.62255859375t-0.172119140625,0.66650390625t-0.062255859375,0.556640625q0,0.30029296875,0.069580078125,0.684814453125t0.234375,0.728759765625t0.41748046875,0.57861328125t0.648193359375,0.234375q0.35888671875,0,0.65185546875-0.17578125t0.560302734375-0.391845703125t0.523681640625-0.38818359375t0.52734375-0.172119140625q0.1171875,0,0.238037109375,0.029296875t0.120849609375,0.15380859375l0,0.0439453125q-0.1318359375,0.34423828125-0.44677734375,0.60791015625t-0.706787109375,0.457763671875t-0.81298828125,0.289306640625t-0.750732421875,0.09521484375q-0.615234375,0-1.080322265625-0.201416015625t-0.772705078125-0.552978515625t-0.465087890625-0.845947265625t-0.157470703125-1.080322265625z M157.85583496094,28.568359375q0-0.5126953125,0.113525390625-1.20849609375t0.384521484375-1.318359375t0.714111328125-1.058349609375t1.116943359375-0.435791015625q0.6298828125,0,0.94482421875,0.362548828125t0.31494140625,0.977783203125q0,0.40283203125-0.150146484375,0.882568359375t-0.428466796875,0.908203125t-0.6591796875,0.714111328125t-0.849609375,0.28564453125l-0.1904296875-0.0146484375q0,0.19775390625,0.05859375,0.531005859375t0.172119140625,0.662841796875t0.29296875,0.57861328125t0.435791015625,0.2490234375q0.37353515625,0,0.7177734375-0.30029296875t0.65185546875-0.66650390625t0.5712890625-0.66650390625t0.4833984375-0.30029296875q0.1171875,0,0.24169921875,0.03662109375t0.13916015625,0.205078125q0,0.1025390625-0.054931640625,0.16845703125t-0.098876953125,0.146484375q-0.22705078125,0.38818359375-0.494384765625,0.73974609375t-0.604248046875,0.63720703125t-0.736083984375,0.450439453125t-0.882568359375,0.164794921875q-0.6298828125,0-1.04736328125-0.223388671875t-0.673828125-0.6005859375t-0.369873046875-0.87158203125t-0.113525390625-1.036376953125z M159.16687011719,28.01171875l0.205078125,0.18310546875q0.146484375,0.1318359375,0.29296875,0.05859375t0.263671875-0.267333984375t0.216064453125-0.479736328125t0.17578125-0.5859375t0.113525390625-0.5859375t0.03662109375-0.47607421875l0-0.2490234375t-0.02197265625-0.263671875t-0.076904296875-0.208740234375t-0.172119140625-0.106201171875q-0.03662109375-0.00732421875-0.06591796875-0.00732421875q-0.2490234375,0-0.4248046875,0.31494140625q-0.1904296875,0.3515625-0.3076171875,0.853271484375t-0.16845703125,1.029052734375t-0.06591796875,0.791015625z M163.97646484375,26.37841796875q0-0.30029296875,0.17578125-0.516357421875t0.428466796875-0.3515625t0.552978515625-0.201416015625t0.556640625-0.06591796875q0.19775390625,0,0.52734375,0.05859375t0.64453125,0.17578125t0.545654296875,0.3076171875t0.230712890625,0.44677734375q0,0.1171875-0.087890625,0.208740234375t-0.18310546875,0.091552734375q-0.19775390625,0-0.35888671875-0.128173828125t-0.333251953125-0.27099609375t-0.377197265625-0.27099609375t-0.46142578125-0.128173828125t-0.465087890625,0.164794921875t-0.208740234375,0.435791015625q0,0.44677734375,0.31494140625,0.875244140625t0.692138671875,0.90087890625t0.692138671875,0.992431640625t0.31494140625,1.14990234375q0,0.27099609375-0.113525390625,0.457763671875t-0.30029296875,0.303955078125t-0.421142578125,0.179443359375t-0.4541015625,0.062255859375q-0.24169921875,0-0.56396484375-0.113525390625t-0.60791015625-0.30029296875t-0.479736328125-0.435791015625t-0.194091796875-0.52001953125q0-0.1318359375,0.186767578125-0.16845703125t0.274658203125-0.03662109375q0.0439453125,0,0.135498046875,0.029296875t0.179443359375,0.06591796875t0.157470703125,0.08056640625t0.054931640625,0.09521484375q0.0732421875,0.087890625,0.223388671875,0.260009765625t0.30029296875,0.2783203125t0.263671875,0.076904296875t0.113525390625-0.32958984375q0-0.5712890625-0.3076171875-1.051025390625t-0.670166015625-0.9375t-0.670166015625-0.908203125t-0.3076171875-0.963134765625z"/></svg>
